# xmcd
#
# Track frame offsets:
#	150
#	10900
#	25622
#	36962
#	53837
#	67080
#	83195
#	95520
#	110285
#	125805
#	140250
#	157675
#	172335
#
# Disc length: 2459 seconds
#
# Revision: 0
# Processed by: cddbd v1.5.2PL0 Copyright (c) Steve Scherf et al.
# Submitted via: audiograbber 1.83.01
#
DISCID=a909990d
DTITLE=Hill Billies - The Old Man
DYEAR=1995
DGENRE=Country
TTITLE0=This Old Heart
TTITLE1=Dancing The Night Away
TTITLE2=The Old Man
TTITLE3=Love Me
TTITLE4=Just Call Me Lonesome
TTITLE5=My Life's Work
TTITLE6=Criss Corssed
TTITLE7=Every Little Thing
TTITLE8=Who's Crying Now
TTITLE9=Every Time You Go Outside
TTITLE10=Seminole Wind
TTITLE11=Take Me As I Am
TTITLE12=Hard On Love
EXTD=
EXTT0=
EXTT1=
EXTT2=
EXTT3=
EXTT4=
EXTT5=
EXTT6=
EXTT7=
EXTT8=
EXTT9=
EXTT10=
EXTT11=
EXTT12=
PLAYORDER=
